<?xml version="1.0" encoding="utf-8"?>
<!-- Generator: Adobe Illustrator 26.0.0, SVG Export Plug-In . SVG Version: 6.00 Build 0)  -->
<svg version="1.1" id="图层_1" xmlns="http://www.w3.org/2000/svg" xmlns:xlink="http://www.w3.org/1999/xlink" x="0px" y="0px"
	 viewBox="0 0 2054.8 439.1" style="enable-background:new 0 0 2054.8 439.1;" xml:space="preserve">
<style type="text/css">
	.st0{clip-path:url(#SVGID_00000051349235227318371120000015750786816872616886_);}
	.st1{fill:#448870;}
	.st2{clip-path:url(#SVGID_00000146488824013529889430000016382104229707610011_);}
	.st3{clip-path:url(#SVGID_00000173155499013608157490000000935320096854068627_);}
	.st4{stroke:#000000;stroke-width:14;stroke-miterlimit:10;}
	.st5{font-family:'Arial-Black';}
	.st6{font-size:478.9081px;}
	.st7{clip-path:url(#SVGID_00000038379568509025569290000006027108708361800072_);}
</style>
<g>
	<g>
		<g>
			<defs>
				<rect id="SVGID_1_" x="-81.5" width="231.6" height="390.7"/>
			</defs>
			<clipPath id="SVGID_00000065772822573885179470000012881694220728371348_">
				<use xlink:href="#SVGID_1_"  style="overflow:visible;"/>
			</clipPath>
			<g style="clip-path:url(#SVGID_00000065772822573885179470000012881694220728371348_);">
				<g>
					<path d="M152.2,285.1c0.7-2.9,1-6.2,1.3-9.3c0.2-1.6,0.4-3.1,0.6-4.7c-0.1-2.8-0.2-5.6-0.2-8.4c-2-17.8-2-35.8-2-54.3
						c0-1.4,0.3-2.4,0.6-3.2c0-1.5,0-3,0-4.5c-1.3,11.5-2.3,23.3-2.7,35.5V59H98.8v381.5h51.1V263.3c0.3,8.3,0.8,16.4,1.5,24.4
						C151.7,286.8,152,286,152.2,285.1z"/>
					<path class="st1" d="M152.2,285.1c0.7-2.9,1-6.2,1.3-9.3c0.2-1.6,0.4-3.1,0.6-4.7c-0.1-2.8-0.2-5.6-0.2-8.4
						c-2-17.8-2-35.8-2-54.3c0-1.4,0.3-2.4,0.6-3.2c0-1.5,0-3,0-4.5c-1.3,11.5-2.3,23.3-2.7,35.5V59H98.8v381.5h51.1V263.3
						c0.3,8.3,0.8,16.4,1.5,24.4C151.7,286.8,152,286,152.2,285.1z"/>
				</g>
				<path d="M265.2,232.3c0,46.7-17.6,84.6-39.1,84.6s-39.1-38-39.1-84.7s17.6-84.7,39.1-84.7V36.9c-29.8,0-56.4,31.5-72.8,79.9
					c0.1,0.4,0.1,0.9,0.1,1.4v65c0,1.8-0.4,3.1-1.1,3.8c0.3,0.7,0.5,1.7,0.5,2.9v2.7c0.2,0.5,0.4,1.1,0.4,1.7
					c0.5,4.2,0.6,8.5,0.6,12.8c0,1-0.2,1.9-0.4,2.6c0.1,2.9,0.2,6,0.4,8.9c0.1,1.4-0.1,2.4-0.5,3.2c0.6,3.9,1,7.9,1.1,12
					c0,2.4-1.1,4.1-2.4,4.7c0.1,2.5,0.4,5,0.5,7.5c0.3,2.3-0.4,4.2-1.3,5.2c0.4,0.6,0.7,1.4,0.8,2.4l3.4,28.7
					c0.6,2.9-0.4,4.9-1.7,5.6c-0.3,0.2-0.6,0.3-1,0.4c0,0.2,0,0.4,0,0.6c1.2,13.5,2.2,27,2.2,40.6c0,1.9-0.6,3.4-1.5,4.1
					c0.1,0.4,0.2,0.9,0.3,1.3c0.6,2.9-1,6.1-2.8,6.1c16.2,52.2,43.7,86.6,74.9,86.6c47.7,0,90.3-87.6,90.3-195.3L265.2,232.3
					L265.2,232.3L265.2,232.3z"/>
			</g>
		</g>
	</g>
</g>
<g>
	<g>
		<g>
			<g>
				<defs>
					<rect id="SVGID_00000022552728988987517950000009139761214760539024_" x="361.4" y="39.7" width="184.1" height="320.2"/>
				</defs>
				<clipPath id="SVGID_00000106133567533152209070000007377666591274890149_">
					<use xlink:href="#SVGID_00000022552728988987517950000009139761214760539024_"  style="overflow:visible;"/>
				</clipPath>
				<g style="clip-path:url(#SVGID_00000106133567533152209070000007377666591274890149_);">
					<path d="M-70.6-10H6c5.8,0,10.5-5.1,10.5-11.5v-55.3c0-6.4-4.7-11.5-10.5-11.5h-76.5c-53.5,0-96.9,59.9-96.9,133.6v6.5
						c0,6.4,4.7,11.5,10.5,11.5h16.3c9.3,0,14,12,7.7,19.4c-21.1,24.5-34.5,61.1-34.5,102v35.7c0,6.4,4.7,11.5,10.5,11.5h35.8
						c5.8,0,10.5-5.1,10.5-11.5v-35.7c0-30.5,18-55.2,40.1-55.2H6c5.8,0,10.5-5.1,10.5-11.5V62.7c0-6.4-4.7-11.5-10.5-11.5h-76.5
						c-9,0-17.7,1.7-25.9,4.8c-6.9,2.7-14.2-2.8-14.2-10.8l0,0C-110.8,14.8-92.8-10-70.6-10L-70.6-10z"/>
				</g>
			</g>
		</g>
	</g>
</g>
<g>
	<g>
		<g>
			<g>
				<defs>
					<rect id="SVGID_00000136412737439476631830000006537493528255349136_" x="139.1" y="39.5" width="344.4" height="351.2"/>
				</defs>
				<clipPath id="SVGID_00000130608505111573161350000007488535191080677009_">
					<use xlink:href="#SVGID_00000136412737439476631830000006537493528255349136_"  style="overflow:visible;"/>
				</clipPath>
				<g style="clip-path:url(#SVGID_00000130608505111573161350000007488535191080677009_);">
					<path class="st1" d="M482.6,197.4h-63.2c-8.3-53.2-53.6-94-108.2-94c-60.4,0-109.6,50.1-109.6,111.7
						c0,61.6,49.1,111.7,109.6,111.7c54.5,0,99.9-40.8,108.2-94h28.3c-8.5,69-66.5,122.6-136.5,122.6
						c-75.9,0-137.5-62.9-137.5-140.2S235.5,74.8,311.3,74.8V39.5c-95,0-172.2,78.8-172.2,175.6s77.3,175.6,172.2,175.6
						s172.2-78.8,172.2-175.6C483.5,209.1,483.2,203.2,482.6,197.4L482.6,197.4z M311.3,291.4c-41.3,0-74.9-34.2-74.9-76.3
						s33.6-76.3,74.9-76.3c35.3,0,65,25.1,72.8,58.7h-72.8v35.3H384C376.2,266.4,346.6,291.4,311.3,291.4z"/>
				</g>
			</g>
		</g>
	</g>
</g>
<text transform="matrix(0.8594 0 0 1 496.3407 390.6622)" class="st4 st5 st6">1KPGF</text>
<g>
	<g>
		<g>
			<defs>
				<rect id="SVGID_00000005237939031600649420000012629373927208149668_" x="150" y="168.4" width="207.2" height="199.1"/>
			</defs>
			<clipPath id="SVGID_00000063615264796737429740000000461664104013163453_">
				<use xlink:href="#SVGID_00000005237939031600649420000012629373927208149668_"  style="overflow:visible;"/>
			</clipPath>
			<g style="clip-path:url(#SVGID_00000063615264796737429740000000461664104013163453_);">
				<path class="st1" d="M359.2,313.7c0.6-1.5,0.9-3.2,1.2-4.7c0.2-0.8,0.4-1.6,0.6-2.4c-0.1-1.4-0.2-2.8-0.2-4.3
					c-1.8-9.1-1.8-18.3-1.8-27.7c0-0.7,0.2-1.2,0.6-1.6c0-0.8,0-1.5,0-2.3c-1.2,5.8-2.1,11.9-2.4,18.1v-90.3h-45.8v194.4h45.8v-90.3
					c0.2,4.2,0.7,8.4,1.4,12.4C358.8,314.6,359,314.2,359.2,313.7z"/>
				<path d="M460.4,286.8c0,23.8-15.7,43.1-35,43.1s-35-19.4-35-43.1c0-23.8,15.7-43.1,35-43.1v-56.4c-26.7,0-50.5,16-65.1,40.7
					c0.1,0.2,0.1,0.5,0.1,0.7v33.1c0,0.9-0.4,1.6-1,1.9c0.2,0.4,0.5,0.9,0.5,1.5v1.4c0.2,0.3,0.3,0.5,0.4,0.9
					c0.5,2.2,0.6,4.3,0.6,6.5c0,0.5-0.2,0.9-0.4,1.3c0.1,1.5,0.2,3,0.4,4.5c0.1,0.7-0.1,1.2-0.5,1.6c0.6,2,0.9,4,1,6.1
					c0,1.2-1,2.1-2.2,2.4c0.1,1.3,0.3,2.6,0.5,3.8c0.2,1.2-0.4,2.2-1.2,2.7c0.3,0.3,0.6,0.7,0.7,1.2l3,14.6c0.6,1.5-0.4,2.5-1.5,2.8
					c-0.2,0.1-0.6,0.1-0.9,0.2c0,0.1,0,0.2,0,0.3c1.1,6.9,2,13.7,2,20.7c0,1-0.6,1.7-1.4,2.1c0.1,0.2,0.2,0.4,0.2,0.7
					c0.6,1.5-0.9,3.1-2.5,3.1c14.5,26.6,39.2,44.1,67.1,44.1c42.7,0,80.8-44.6,80.8-99.5L460.4,286.8L460.4,286.8L460.4,286.8z"/>
			</g>
		</g>
	</g>
</g>
</svg>
