<?xml version="1.0" encoding="utf-8"?>
<!-- Generator: Adobe Illustrator 26.0.0, SVG Export Plug-In . SVG Version: 6.00 Build 0)  -->
<svg version="1.1" id="图层_1" xmlns="http://www.w3.org/2000/svg" xmlns:xlink="http://www.w3.org/1999/xlink" x="0px" y="0px"
	 viewBox="0 0 422.6 422.6" style="enable-background:new 0 0 422.6 422.6;" xml:space="preserve">
<style type="text/css">
	.st0{clip-path:url(#SVGID_00000048495621242832573260000007434476744953414791_);}
	.st1{fill:#448870;}
	.st2{clip-path:url(#SVGID_00000140718360342509568470000006657564620867029933_);}
	.st3{clip-path:url(#SVGID_00000111873317316184848790000015293065804177765514_);}
	.st4{clip-path:url(#SVGID_00000002359621645421305360000004235537077001418626_);}
</style>
<g>
	<g>
		<g>
			<g>
				<defs>
					<rect id="SVGID_1_" x="-159.4" y="-6.9" width="231.6" height="379"/>
				</defs>
				<clipPath id="SVGID_00000150062987227664017780000013012729770423103150_">
					<use xlink:href="#SVGID_1_"  style="overflow:visible;"/>
				</clipPath>
				<g style="clip-path:url(#SVGID_00000150062987227664017780000013012729770423103150_);">
					<g>
						<path d="M74.3,269.7c0.7-2.9,1-6.1,1.3-9c0.2-1.5,0.4-3,0.6-4.5c-0.1-2.7-0.2-5.4-0.2-8.1c-2-17.2-2-34.8-2-52.6
							c0-1.3,0.3-2.3,0.6-3.1c0-1.5,0-2.9,0-4.4c-1.3,11.1-2.3,22.6-2.7,34.4v-172h-51v370.1H72v-172c0.3,8.1,0.8,15.9,1.5,23.6
							C73.8,271.4,74.1,270.5,74.3,269.7z"/>
						<path class="st1" d="M74.3,269.7c0.7-2.9,1-6.1,1.3-9c0.2-1.5,0.4-3,0.6-4.5c-0.1-2.7-0.2-5.4-0.2-8.1c-2-17.2-2-34.8-2-52.6
							c0-1.3,0.3-2.3,0.6-3.1c0-1.5,0-2.9,0-4.4c-1.3,11.1-2.3,22.6-2.7,34.4v-172h-51v370.1H72v-172c0.3,8.1,0.8,15.9,1.5,23.6
							C73.8,271.4,74.1,270.5,74.3,269.7z"/>
					</g>
					<path d="M187.3,218.5c0,45.3-17.6,82.1-39.1,82.1s-39.1-36.9-39.1-82.1s17.6-82.1,39.1-82.1V28.9c-29.8,0-56.4,30.5-72.8,77.5
						c0.1,0.4,0.1,0.9,0.1,1.4v63c0,1.7-0.4,3-1.1,3.7c0.3,0.7,0.5,1.7,0.5,2.8v2.6c0.2,0.5,0.4,1,0.4,1.7c0.5,4.1,0.6,8.2,0.6,12.4
						c0,1-0.2,1.8-0.4,2.5c0.1,2.9,0.2,5.8,0.4,8.6c0.1,1.4-0.1,2.4-0.5,3.1c0.6,3.8,1,7.7,1.1,11.7c0,2.3-1.1,4-2.4,4.5
						c0.1,2.4,0.4,4.9,0.5,7.2c0.3,2.2-0.4,4.1-1.3,5.1c0.4,0.6,0.7,1.3,0.8,2.3l3.4,27.8c0.6,2.8-0.4,4.7-1.7,5.4
						c-0.3,0.2-0.6,0.3-1,0.3c0,0.2,0,0.4,0,0.6c1.2,13.1,2.2,26.2,2.2,39.4c0,1.9-0.6,3.3-1.5,4c0.1,0.4,0.2,0.8,0.3,1.3
						c0.6,2.9-1,5.9-2.8,5.9c16.2,50.6,43.7,84,74.9,84c47.7,0,90.3-85,90.3-189.4L187.3,218.5L187.3,218.5L187.3,218.5z"/>
				</g>
			</g>
		</g>
	</g>
</g>
<g>
	<g>
		<g>
			<g>
				<g>
					<defs>
						<rect id="SVGID_00000119805465916764611640000010008395083245502352_" x="283.5" y="32.8" width="184.1" height="320.2"/>
					</defs>
					<clipPath id="SVGID_00000150795243397283598390000002813660382532188295_">
						<use xlink:href="#SVGID_00000119805465916764611640000010008395083245502352_"  style="overflow:visible;"/>
					</clipPath>
					<g style="clip-path:url(#SVGID_00000150795243397283598390000002813660382532188295_);">
						<path d="M-148.5-16.9H-72c5.8,0,10.5-5.1,10.5-11.5v-55.3c0-6.4-4.7-11.5-10.5-11.5h-76.5c-53.5,0-96.9,59.9-96.9,133.6v6.5
							c0,6.4,4.7,11.5,10.5,11.5h16.3c9.3,0,14,12,7.7,19.4c-21.1,24.5-34.5,61.1-34.5,102v35.7c0,6.4,4.7,11.5,10.5,11.5h35.8
							c5.8,0,10.5-5.1,10.5-11.5v-35.7c0-30.5,18-55.2,40.1-55.2H-72c5.8,0,10.5-5.1,10.5-11.5V55.8c0-6.4-4.7-11.5-10.5-11.5h-76.5
							c-9,0-17.7,1.7-25.9,4.8c-6.9,2.7-14.2-2.8-14.2-10.8l0,0C-188.7,8-170.7-16.9-148.5-16.9L-148.5-16.9z"/>
					</g>
				</g>
			</g>
		</g>
	</g>
</g>
<g>
	<g>
		<g>
			<g>
				<g>
					<defs>
						<rect id="SVGID_00000101796198585829954370000002297015453851321253_" x="61.2" y="32.6" width="344.4" height="351.2"/>
					</defs>
					<clipPath id="SVGID_00000118394767978298886530000000519950244600399010_">
						<use xlink:href="#SVGID_00000101796198585829954370000002297015453851321253_"  style="overflow:visible;"/>
					</clipPath>
					<g style="clip-path:url(#SVGID_00000118394767978298886530000000519950244600399010_);">
						<path class="st1" d="M404.7,190.5h-63.2c-8.3-53.2-53.6-94-108.2-94c-60.4,0-109.6,50.1-109.6,111.7s49.1,111.7,109.6,111.7
							c54.5,0,99.9-40.8,108.2-94h28.3c-8.5,69-66.5,122.6-136.5,122.6c-75.9,0-137.5-62.9-137.5-140.2S157.6,67.9,233.4,67.9V32.6
							c-95,0-172.2,78.8-172.2,175.6s77.3,175.6,172.2,175.6S405.6,305,405.6,208.2C405.6,202.3,405.3,196.3,404.7,190.5
							L404.7,190.5z M233.4,284.5c-41.3,0-74.9-34.2-74.9-76.3s33.6-76.3,74.9-76.3c35.3,0,65,25.1,72.8,58.7h-72.8v35.3h72.8
							C298.4,259.5,268.7,284.5,233.4,284.5z"/>
					</g>
				</g>
			</g>
		</g>
	</g>
</g>
<g>
	<g>
		<g>
			<g>
				<defs>
					<rect id="SVGID_00000034795091708146616860000001581796650112843925_" x="72.1" y="161.5" width="207.2" height="199.1"/>
				</defs>
				<clipPath id="SVGID_00000062175860680201099130000016274763621034247300_">
					<use xlink:href="#SVGID_00000034795091708146616860000001581796650112843925_"  style="overflow:visible;"/>
				</clipPath>
				<g style="clip-path:url(#SVGID_00000062175860680201099130000016274763621034247300_);">
					<path class="st1" d="M281.3,306.8c0.6-1.5,0.9-3.2,1.2-4.7c0.2-0.8,0.4-1.6,0.6-2.4c-0.1-1.4-0.2-2.8-0.2-4.3
						c-1.8-9.1-1.8-18.3-1.8-27.7c0-0.7,0.2-1.2,0.6-1.6c0-0.8,0-1.5,0-2.3c-1.2,5.8-2.1,11.9-2.4,18.1v-90.3h-45.8V386h45.8v-90.3
						c0.2,4.2,0.7,8.4,1.4,12.4C280.9,307.7,281.1,307.3,281.3,306.8z"/>
					<path d="M382.5,279.9c0,23.8-15.7,43.1-35,43.1s-35-19.4-35-43.1s15.7-43.1,35-43.1v-56.4c-26.7,0-50.5,16-65.1,40.7
						c0.1,0.2,0.1,0.5,0.1,0.7v33.1c0,0.9-0.4,1.6-1,1.9c0.2,0.4,0.5,0.9,0.5,1.5v1.4c0.2,0.3,0.3,0.5,0.4,0.9
						c0.5,2.2,0.6,4.3,0.6,6.5c0,0.5-0.2,0.9-0.4,1.3c0.1,1.5,0.2,3,0.4,4.5c0.1,0.7-0.1,1.2-0.5,1.6c0.6,2,0.9,4,1,6.1
						c0,1.2-1,2.1-2.2,2.4c0.1,1.3,0.3,2.6,0.5,3.8c0.2,1.2-0.4,2.2-1.2,2.7c0.3,0.3,0.6,0.7,0.7,1.2l3,14.6
						c0.6,1.5-0.4,2.5-1.5,2.8c-0.2,0.1-0.6,0.1-0.9,0.2c0,0.1,0,0.2,0,0.3c1.1,6.9,2,13.7,2,20.7c0,1-0.6,1.7-1.4,2.1
						c0.1,0.2,0.2,0.4,0.2,0.7c0.6,1.5-0.9,3.1-2.5,3.1c14.5,26.6,39.2,44.1,67.1,44.1c42.7,0,80.8-44.6,80.8-99.5L382.5,279.9
						L382.5,279.9L382.5,279.9z"/>
				</g>
			</g>
		</g>
	</g>
</g>
</svg>
